<svg xmlns="http://www.w3.org/2000/svg" version="1.1" xmlns:xlink="http://www.w3.org/1999/xlink" viewBox="0 0 200 200"><rect width="200" height="200" fill="url('#gradient')"></rect><defs><linearGradient id="gradient" gradientTransform="rotate(138 0.5 0.5)"><stop offset="0%" stop-color="#ffffff"></stop><stop offset="100%" stop-color="#ffffff"></stop></linearGradient></defs><g><g fill="#f7ff00" transform="matrix(4.161175030599755,0,0,4.161175030599755,16.50754739815632,131.2295002715532)" stroke="#56d13f" stroke-width="0.9"><path d="M4.95 0L1.65 0L1.65-8.28L0.12-8.28L0.12-10.57L1.65-10.57L1.65-11.41Q1.65-13.21 2.71-14.21Q3.78-15.21 5.70-15.21L5.70-15.21Q6.41-15.21 7.25-15L7.25-15L7.26-12.58Q6.95-12.67 6.45-12.67L6.45-12.67Q4.95-12.67 4.95-11.38L4.95-11.38L4.95-10.57L7.01-10.57L7.01-8.28L4.95-8.28L4.95 0ZM7.76-4.82L7.75-5.38Q7.75-6.96 8.37-8.20Q8.98-9.43 10.14-10.10Q11.29-10.76 12.84-10.76L12.84-10.76Q15.21-10.76 16.58-9.29Q17.95-7.82 17.95-5.29L17.95-5.29L17.95-5.18Q17.95-2.71 16.58-1.25Q15.21 0.20 12.86 0.20L12.86 0.20Q10.61 0.20 9.24-1.16Q7.87-2.51 7.76-4.82L7.76-4.82ZM11.05-5.77L11.04-5.18Q11.04-3.71 11.50-3.03Q11.96-2.34 12.86-2.34L12.86-2.34Q14.62-2.34 14.66-5.05L14.66-5.05L14.66-5.38Q14.66-8.22 12.84-8.22L12.84-8.22Q11.19-8.22 11.05-5.77L11.05-5.77ZM18.99-4.82L18.98-5.38Q18.98-6.96 19.60-8.20Q20.21-9.43 21.37-10.10Q22.52-10.76 24.07-10.76L24.07-10.76Q26.45-10.76 27.81-9.29Q29.18-7.82 29.18-5.29L29.18-5.29L29.18-5.18Q29.18-2.71 27.81-1.25Q26.44 0.20 24.09 0.20L24.09 0.20Q21.84 0.20 20.47-1.16Q19.10-2.51 18.99-4.82L18.99-4.82ZM22.29-5.77L22.28-5.18Q22.28-3.71 22.73-3.03Q23.19-2.34 24.09-2.34L24.09-2.34Q25.85-2.34 25.89-5.05L25.89-5.05L25.89-5.38Q25.89-8.22 24.07-8.22L24.07-8.22Q22.42-8.22 22.29-5.77L22.29-5.77ZM30.21-5.36L30.21-5.36Q30.21-7.87 31.30-9.32Q32.38-10.76 34.33-10.76L34.33-10.76Q35.74-10.76 36.71-9.65L36.71-9.65L36.71-15L40.01-15L40.01 0L37.05 0L36.88-1.13Q35.87 0.20 34.31 0.20L34.31 0.20Q32.42 0.20 31.32-1.25Q30.21-2.70 30.21-5.36ZM33.52-5.76L33.51-5.16Q33.51-2.34 35.15-2.34L35.15-2.34Q36.24-2.34 36.71-3.26L36.71-3.26L36.71-7.29Q36.26-8.22 35.17-8.22L35.17-8.22Q33.64-8.22 33.52-5.76L33.52-5.76Z"></path></g></g></svg>